<svg width="70" height="70" viewBox="0 0 70 70" fill="none" xmlns="http://www.w3.org/2000/svg">
<mask id="path-1-inside-1_7402_339" fill="white">
<path d="M25.2412 44.7589C23.3117 42.8289 21.9978 40.3701 21.4656 37.6934C20.9335 35.0167 21.207 32.2423 22.2515 29.721C23.296 27.1997 25.0647 25.0448 27.3339 23.5287C29.6031 22.0125 32.2709 21.2033 35 21.2033C37.7291 21.2033 40.3969 22.0125 42.6661 23.5287C44.9353 25.0448 46.704 27.1997 47.7486 29.721C48.7931 32.2423 49.0666 35.0167 48.5344 37.6934C48.0023 40.3701 46.6884 42.8289 44.7589 44.7589L43.2465 46.2685C42.3818 47.1333 41.696 48.16 41.2281 49.2898C40.7603 50.4197 40.5196 51.6306 40.5197 52.8535V54.319C40.5197 55.7829 39.9382 57.1869 38.903 58.222C37.8679 59.2572 36.4639 59.8387 35 59.8387C33.5361 59.8387 32.1321 59.2572 31.097 58.222C30.0618 57.1869 29.4803 55.7829 29.4803 54.319V52.8535C29.4803 50.3835 28.4978 48.0127 26.7536 46.2685L25.2412 44.7589Z"/>
<path d="M70 35C70 54.33 54.33 70 35 70C15.67 70 0 54.33 0 35C0 15.67 15.67 0 35 0C54.33 0 70 15.67 70 35Z"/>
</mask>
<path d="M28.5502 48.2993C28.2741 48.2993 28.0502 48.5232 28.0502 48.7993C28.0502 49.0754 28.2741 49.2993 28.5502 49.2993V48.2993ZM41.447 49.2993C41.7232 49.2993 41.947 49.0754 41.947 48.7993C41.947 48.5232 41.7232 48.2993 41.447 48.2993V49.2993ZM35.5 10.1613C35.5 9.88517 35.2762 9.66131 35 9.66131C34.7239 9.66131 34.5 9.88517 34.5 10.1613H35.5ZM34.5 12.9212C34.5 13.1973 34.7239 13.4212 35 13.4212C35.2762 13.4212 35.5 13.1973 35.5 12.9212H34.5ZM52.9173 17.7898C53.1126 17.5946 53.1126 17.278 52.9173 17.0827C52.722 16.8875 52.4055 16.8875 52.2102 17.0827L52.9173 17.7898ZM50.259 19.034C50.0637 19.2292 50.0637 19.5458 50.259 19.7411C50.4542 19.9363 50.7708 19.9363 50.9661 19.7411L50.259 19.034ZM59.8387 35.5C60.1149 35.5 60.3387 35.2762 60.3387 35C60.3387 34.7239 60.1149 34.5 59.8387 34.5V35.5ZM57.0789 34.5C56.8027 34.5 56.5789 34.7239 56.5789 35C56.5789 35.2762 56.8027 35.5 57.0789 35.5V34.5ZM12.9212 35.5C13.1973 35.5 13.4212 35.2762 13.4212 35C13.4212 34.7239 13.1973 34.5 12.9212 34.5V35.5ZM10.1613 34.5C9.88517 34.5 9.66131 34.7239 9.66131 35C9.66131 35.2762 9.88517 35.5 10.1613 35.5V34.5ZM19.034 19.7411C19.2292 19.9363 19.5458 19.9363 19.7411 19.7411C19.9363 19.5458 19.9363 19.2292 19.7411 19.034L19.034 19.7411ZM17.7898 17.0827C17.5946 16.8875 17.278 16.8875 17.0827 17.0827C16.8875 17.278 16.8875 17.5946 17.0827 17.7898L17.7898 17.0827ZM28.5502 49.2993H41.447V48.2993H28.5502V49.2993ZM34.5 10.1613V12.9212H35.5V10.1613H34.5ZM52.2102 17.0827L50.259 19.034L50.9661 19.7411L52.9173 17.7898L52.2102 17.0827ZM59.8387 34.5H57.0789V35.5H59.8387V34.5ZM12.9212 34.5H10.1613V35.5H12.9212V34.5ZM19.7411 19.034L17.7898 17.0827L17.0827 17.7898L19.034 19.7411L19.7411 19.034ZM25.2412 44.7589L24.534 45.4659L24.5347 45.4666L25.2412 44.7589ZM44.7589 44.7589L45.4653 45.4666L45.4661 45.4659L44.7589 44.7589ZM43.2465 46.2685L42.54 45.5608L42.5393 45.5615L43.2465 46.2685ZM40.5197 52.8535L41.5197 52.8535L41.5197 52.8534L40.5197 52.8535ZM26.7536 46.2685L27.4607 45.5614L27.46 45.5608L26.7536 46.2685ZM25.9484 44.0519C24.1587 42.2617 22.94 39.9811 22.4464 37.4984L20.4848 37.8884C21.0555 40.759 22.4646 43.396 24.534 45.4659L25.9484 44.0519ZM22.4464 37.4984C21.9528 35.0156 22.2065 32.4423 23.1753 30.1037L21.3276 29.3383C20.2074 32.0422 19.9141 35.0177 20.4848 37.8884L22.4464 37.4984ZM23.1753 30.1037C24.1442 27.7652 25.7847 25.7664 27.8895 24.3601L26.7784 22.6972C24.3447 24.3232 22.4479 26.6343 21.3276 29.3383L23.1753 30.1037ZM27.8895 24.3601C29.9942 22.9539 32.4687 22.2033 35 22.2033V20.2033C32.0732 20.2033 29.212 21.0712 26.7784 22.6972L27.8895 24.3601ZM35 22.2033C37.5313 22.2033 40.0058 22.9539 42.1106 24.3601L43.2217 22.6972C40.788 21.0712 37.9269 20.2033 35 20.2033V22.2033ZM42.1106 24.3601C44.2153 25.7664 45.8558 27.7652 46.8247 30.1037L48.6724 29.3383C47.5522 26.6343 45.6553 24.3232 43.2217 22.6972L42.1106 24.3601ZM46.8247 30.1037C47.7935 32.4423 48.0472 35.0156 47.5536 37.4984L49.5152 37.8884C50.0859 35.0177 49.7926 32.0422 48.6724 29.3383L46.8247 30.1037ZM47.5536 37.4984C47.06 39.9811 45.8413 42.2617 44.0517 44.0519L45.4661 45.4659C47.5354 43.396 48.9445 40.759 49.5152 37.8884L47.5536 37.4984ZM44.0524 44.0511L42.54 45.5608L43.9529 46.9763L45.4653 45.4666L44.0524 44.0511ZM42.5393 45.5615C41.5818 46.5191 40.8223 47.656 40.3042 48.9072L42.1521 49.6724C42.5697 48.6639 43.1819 47.7475 43.9536 46.9756L42.5393 45.5615ZM40.3042 48.9072C39.7861 50.1584 39.5196 51.4994 39.5197 52.8537L41.5197 52.8534C41.5196 51.7618 41.7345 50.6809 42.1521 49.6724L40.3042 48.9072ZM39.5197 52.8535V54.319H41.5197V52.8535H39.5197ZM39.5197 54.319C39.5197 55.5177 39.0435 56.6673 38.1959 57.5149L39.6102 58.9291C40.8328 57.7065 41.5197 56.0482 41.5197 54.319H39.5197ZM38.1959 57.5149C37.3483 58.3625 36.1987 58.8387 35 58.8387V60.8387C36.7292 60.8387 38.3875 60.1518 39.6102 58.9291L38.1959 57.5149ZM35 58.8387C33.8013 58.8387 32.6517 58.3625 31.8041 57.5149L30.3899 58.9291C31.6126 60.1518 33.2709 60.8387 35 60.8387V58.8387ZM31.8041 57.5149C30.9565 56.6673 30.4803 55.5177 30.4803 54.319H28.4803C28.4803 56.0482 29.1672 57.7065 30.3899 58.9291L31.8041 57.5149ZM30.4803 54.319V52.8535H28.4803V54.319H30.4803ZM30.4803 52.8535C30.4803 50.1183 29.3925 47.4932 27.4607 45.5614L26.0465 46.9756C27.6031 48.5323 28.4803 50.6486 28.4803 52.8535H30.4803ZM27.46 45.5608L25.9476 44.0511L24.5347 45.4666L26.0471 46.9763L27.46 45.5608ZM69 35C69 53.7777 53.7777 69 35 69V71C54.8823 71 71 54.8823 71 35H69ZM35 69C16.2223 69 1 53.7777 1 35H-1C-1 54.8823 15.1177 71 35 71V69ZM1 35C1 16.2223 16.2223 1 35 1V-1C15.1177 -1 -1 15.1177 -1 35H1ZM35 1C53.7777 1 69 16.2223 69 35H71C71 15.1177 54.8823 -1 35 -1V1Z" fill="#EC7979" mask="url(#path-1-inside-1_7402_339)"/>
</svg>
