<svg display="none" xmlns="http://www.w3.org/2000/svg">
<symbol id="logo" viewBox="0 0 88 32" fill="none">
<path d="M10.6011 0.456055H16.1137L26.3906 31.1461H20.7993L18.2006 23.4952H8.43549L5.87609 31.1461H0.28479L10.6011 0.456055ZM17.2162 19.3023L13.3574 6.63729L9.34112 19.3023H17.2162Z" fill="white"/>
<path d="M32.3708 0.456055L39.3008 11.7811L46.1915 0.456055H52.0978L42.4115 16.0172L51.7828 31.1461H45.8765L39.3008 20.2533L32.6858 31.1461H26.7401L36.1114 16.0172L26.4251 0.456055H32.3708Z" fill="white"/>
<path d="M54.9125 31.1461V0.456055H60.3463V31.1461H54.9125Z" fill="#EC7979"/>
<path d="M87.0874 5.68633H78.1492V31.1461H72.7548V5.68633H63.8166V0.456055H87.0874V5.68633Z" fill="#EC7979"/>
</symbol>

<symbol id="facebook"  viewBox="0 0 32 56" fill="none">
<path d="M7.82702 55.7083H19.4937V32.3458H30.0054L31.1604 20.7375H19.4937V14.875C19.4937 14.1014 19.801 13.3595 20.348 12.8126C20.8949 12.2656 21.6368 11.9583 22.4104 11.9583H31.1604V0.291626H22.4104C18.5426 0.291626 14.8333 1.82808 12.0984 4.56299C9.36347 7.29789 7.82702 11.0072 7.82702 14.875V20.7375H1.99368L0.838684 32.3458H7.82702V55.7083Z" fill="#CCCCCC"/>
</symbol>

<symbol id="twitter" viewBox="0 0 59 48" fill="none" >
<path d="M52.2629 12.3247C52.3008 12.8351 52.3008 13.3426 52.3008 13.8501C52.3008 29.3813 40.4796 47.278 18.8758 47.278C12.22 47.278 6.03665 45.3501 0.833313 42.0018C1.77831 42.1097 2.68831 42.1476 3.67123 42.1476C8.95912 42.1604 14.0973 40.3922 18.2575 37.128C15.8058 37.0836 13.4292 36.2748 11.4594 34.8143C9.48969 33.3539 8.02518 31.3148 7.2704 28.9818C7.99665 29.0897 8.72581 29.1626 9.48998 29.1626C10.5429 29.1626 11.6016 29.0168 12.5846 28.763C9.92386 28.2258 7.53136 26.7836 5.81387 24.6817C4.09637 22.5797 3.15992 19.9478 3.16373 17.2334V17.0876C4.72998 17.9597 6.54706 18.5051 8.47206 18.578C6.85941 17.5064 5.53708 16.0522 4.62305 14.3453C3.70903 12.6384 3.23173 10.7317 3.23373 8.7955C3.23373 6.61384 3.81415 4.613 4.83206 2.86884C7.78413 6.50014 11.466 9.47089 15.6393 11.5887C19.8126 13.7065 24.3841 14.924 29.0579 15.1626C28.8771 14.2876 28.7662 13.3805 28.7662 12.4705C28.7655 10.9275 29.0688 9.39942 29.659 7.9737C30.2491 6.54798 31.1144 5.25255 32.2055 4.16147C33.2966 3.07038 34.592 2.20503 36.0178 1.6149C37.4435 1.02476 38.9715 0.721403 40.5146 0.722169C43.8979 0.722169 46.9516 2.13967 49.0983 4.43217C51.7285 3.92355 54.2507 2.9634 56.5533 1.59425C55.6766 4.30913 53.8401 6.61122 51.3879 8.06925C53.7206 7.80319 56.0004 7.18974 58.1516 6.24925C56.5449 8.59162 54.554 10.6457 52.2629 12.3247Z" fill="#CCCCCC"/>
</symbol>

<symbol id="linked" viewBox="0 0 54 54" fill="none" >
<path d="M50.3333 0.75H3.66667C2.89312 0.75 2.15125 1.05729 1.60427 1.60427C1.05729 2.15125 0.75 2.89312 0.75 3.66667V50.3333C0.75 51.1069 1.05729 51.8488 1.60427 52.3957C2.15125 52.9427 2.89312 53.25 3.66667 53.25H50.3333C51.1069 53.25 51.8488 52.9427 52.3957 52.3957C52.9427 51.8488 53.25 51.1069 53.25 50.3333V3.66667C53.25 2.89312 52.9427 2.15125 52.3957 1.60427C51.8488 1.05729 51.1069 0.75 50.3333 0.75ZM16.3221 45.4829H8.52875V20.4287H16.3221V45.4829ZM12.4254 17.0075C11.228 17.0075 10.0796 16.5318 9.23283 15.6851C8.3861 14.8384 7.91042 13.69 7.91042 12.4925C7.91042 11.295 8.3861 10.1466 9.23283 9.29991C10.0796 8.45319 11.228 7.9775 12.4254 7.9775C13.6229 7.9775 14.7713 8.45319 15.618 9.29991C16.4647 10.1466 16.9404 11.295 16.9404 12.4925C16.9404 13.69 16.4647 14.8384 15.618 15.6851C14.7713 16.5318 13.6229 17.0075 12.4254 17.0075ZM45.4858 45.4829H37.7012V33.3C37.7012 30.395 37.6488 26.6588 33.6529 26.6588C29.5988 26.6588 28.9833 29.8263 28.9833 33.0958V45.4858H21.2046V20.4317H28.6713V23.8558H28.7792C29.8146 21.8871 32.3579 19.8104 36.1408 19.8104C44.0275 19.8104 45.4829 24.9963 45.4829 31.7454V45.4829H45.4858Z" fill="#CCCCCC"/>
</symbol>

<symbol id="pinterest" viewBox="0 0 60 60" fill="none" >
<path d="M21.3667 57.8251C24.1667 58.6709 26.9958 59.1667 30 59.1667C37.7355 59.1667 45.1542 56.0938 50.624 50.624C56.0938 45.1542 59.1667 37.7355 59.1667 30C59.1667 26.1698 58.4123 22.3771 56.9465 18.8384C55.4807 15.2998 53.3323 12.0845 50.624 9.37609C47.9156 6.66772 44.7003 4.51932 41.1616 3.05355C37.623 1.58779 33.8302 0.833374 30 0.833374C26.1698 0.833374 22.3771 1.58779 18.8384 3.05355C15.2997 4.51932 12.0844 6.66772 9.37606 9.37609C3.90625 14.8459 0.833344 22.2646 0.833344 30C0.833344 42.3959 8.62084 53.0417 19.6167 57.2417C19.3542 54.9667 19.0917 51.2042 19.6167 48.6084L22.9708 34.2C22.9708 34.2 22.125 32.5084 22.125 29.825C22.125 25.8 24.6333 22.7959 27.4917 22.7959C30 22.7959 31.1667 24.6334 31.1667 26.9959C31.1667 29.5042 29.5042 33.0917 28.6583 36.5334C28.1625 39.3917 30.175 41.9 33.0917 41.9C38.2833 41.9 42.3083 36.3584 42.3083 28.5417C42.3083 21.5417 37.2917 16.7584 30.0875 16.7584C21.8625 16.7584 17.0208 22.8834 17.0208 29.3292C17.0208 31.8375 17.8375 34.375 19.1792 36.0375C19.4417 36.2125 19.4417 36.4459 19.3542 36.8834L18.5083 40.0625C18.5083 40.5584 18.1875 40.7334 17.6917 40.3834C13.9583 38.75 11.8 33.4417 11.8 29.1542C11.8 19.9375 18.3333 11.5667 30.9333 11.5667C40.9667 11.5667 48.7834 18.7709 48.7834 28.3375C48.7834 38.3709 42.5709 46.4209 33.675 46.4209C30.8458 46.4209 28.075 44.9042 27.0833 43.125L25.1292 50.0375C24.4583 52.5459 22.6208 55.9 21.3667 57.9125V57.8251Z" fill="#CCCCCC"/>

</symbol>

<symbol id="instagram" viewBox="0 0 54 54" fill="none">
<path d="M53.0956 16.2228C53.0661 14.0138 52.6526 11.8267 51.8735 9.75946C51.1978 8.01574 50.1659 6.43212 48.8436 5.1098C47.5212 3.78748 45.9376 2.75552 44.1939 2.07988C42.1532 1.31383 39.9973 0.89962 37.8181 0.854875C35.0122 0.729458 34.1226 0.694458 27.0001 0.694458C19.8776 0.694458 18.9647 0.694458 16.1793 0.854875C14.001 0.899949 11.8462 1.31416 9.80639 2.07988C8.0624 2.75505 6.47854 3.78684 5.15616 5.10922C3.83377 6.4316 2.80199 8.01546 2.12681 9.75946C1.35923 11.7986 0.94592 13.9539 0.904727 16.1324C0.779311 18.9411 0.741394 19.8307 0.741394 26.9532C0.741394 34.0757 0.741394 34.9857 0.904727 37.774C0.948477 39.9557 1.35973 42.1082 2.12681 44.1528C2.80312 45.8963 3.83567 47.4795 5.1585 48.8013C6.48132 50.1231 8.06533 51.1545 9.80931 51.8295C11.8435 52.6263 13.9987 53.0701 16.1822 53.142C18.991 53.2674 19.8806 53.3053 27.0031 53.3053C34.1256 53.3053 35.0385 53.3053 37.8239 53.142C40.0031 53.099 42.1591 52.6858 44.1997 51.9199C45.943 51.2434 47.5262 50.2112 48.8484 48.889C50.1707 47.5668 51.2029 45.9836 51.8793 44.2403C52.6464 42.1986 53.0576 40.0461 53.1014 37.8615C53.2268 35.0557 53.2647 34.1661 53.2647 27.0407C53.2589 19.9182 53.2589 19.014 53.0956 16.2228ZM26.9826 40.4224C19.5335 40.4224 13.4989 34.3878 13.4989 26.9386C13.4989 19.4895 19.5335 13.4549 26.9826 13.4549C30.5588 13.4549 33.9884 14.8755 36.5171 17.4042C39.0458 19.9329 40.4664 23.3625 40.4664 26.9386C40.4664 30.5147 39.0458 33.9444 36.5171 36.4731C33.9884 39.0018 30.5588 40.4224 26.9826 40.4224ZM41.0031 16.1003C40.5901 16.1007 40.181 16.0196 39.7994 15.8617C39.4177 15.7039 39.071 15.4723 38.7789 15.1802C38.4869 14.8882 38.2553 14.5414 38.0974 14.1598C37.9396 13.7782 37.8585 13.3691 37.8589 12.9561C37.8589 12.5434 37.9402 12.1348 38.0981 11.7535C38.2561 11.3722 38.4875 11.0257 38.7794 10.7339C39.0712 10.4421 39.4176 10.2106 39.7989 10.0526C40.1802 9.89471 40.5889 9.81342 41.0016 9.81342C41.4143 9.81342 41.823 9.89471 42.2043 10.0526C42.5856 10.2106 42.932 10.4421 43.2238 10.7339C43.5157 11.0257 43.7472 11.3722 43.9051 11.7535C44.063 12.1348 44.1443 12.5434 44.1443 12.9561C44.1443 14.6945 42.7385 16.1003 41.0031 16.1003Z" fill="#CCCCCC"/>
</symbol>

<symbol id="github" viewBox="0 0 60 58" fill="none">
<path fill-rule="evenodd" clip-rule="evenodd" d="M30.0754 0.833374C14.0075 0.833374 0.984543 13.8563 0.984543 29.9242C0.984543 42.775 9.31746 53.6805 20.8791 57.5305C22.3345 57.793 22.8595 56.8975 22.8595 56.1275C22.8595 55.4363 22.8362 53.6046 22.8275 51.1809C14.7337 52.9367 13.0245 47.2784 13.0245 47.2784C11.7062 43.9184 9.79579 43.023 9.79579 43.023C7.15621 41.2175 9.99704 41.2584 9.99704 41.2584C12.9195 41.4625 14.4508 44.2567 14.4508 44.2567C17.0466 48.7017 21.2641 47.4184 22.915 46.6746C23.1804 44.7934 23.9387 43.51 24.767 42.7838C18.3095 42.0517 11.5195 39.555 11.5195 28.4046C11.5195 25.2342 12.6541 22.6325 14.5062 20.6025C14.2116 19.8646 13.2054 16.9042 14.795 12.9025C14.795 12.9025 17.2362 12.118 22.7925 15.8805C25.1654 15.2349 27.6132 14.9054 30.0725 14.9005C32.5317 14.9044 34.9797 15.234 37.3525 15.8805C42.9116 12.115 45.35 12.9025 45.35 12.9025C46.9395 16.9042 45.942 19.8646 45.6387 20.6025C47.5054 22.6325 48.6254 25.2313 48.6254 28.4046C48.6254 39.5842 41.8295 42.04 35.3487 42.7605C36.3841 43.6588 37.3175 45.4321 37.3175 48.1446C37.3175 52.0355 37.2825 55.1738 37.2825 56.1275C37.2825 56.9063 37.8016 57.8105 39.2862 57.5246C50.842 53.6688 59.1662 42.7721 59.1662 29.9242C59.1662 13.8563 46.1433 0.833374 30.0754 0.833374Z" fill="#CCCCCC"/>
</symbol>

<symbol id="rss" viewBox="0 0 47 47" fill="none">
<path d="M0.666664 0.949829V9.204C21.1708 9.204 37.7958 25.829 37.7958 46.3332H46.05C46.05 21.279 25.7208 0.949829 0.666664 0.949829ZM0.666664 17.4582V25.7123C12.0417 25.7123 21.2875 34.9582 21.2875 46.3332H29.5417C29.5417 30.379 16.6208 17.4582 0.666664 17.4582Z" fill="#CCCCCC"/>
</symbol>

<symbol id="card_1"  viewBox="0 0 70 70" fill="none">
<mask id="path-1-inside-1_7402_339" fill="white">
<path d="M25.2412 44.7589C23.3117 42.8289 21.9978 40.3701 21.4656 37.6934C20.9335 35.0167 21.207 32.2423 22.2515 29.721C23.296 27.1997 25.0647 25.0448 27.3339 23.5287C29.6031 22.0125 32.2709 21.2033 35 21.2033C37.7291 21.2033 40.3969 22.0125 42.6661 23.5287C44.9353 25.0448 46.704 27.1997 47.7486 29.721C48.7931 32.2423 49.0666 35.0167 48.5344 37.6934C48.0023 40.3701 46.6884 42.8289 44.7589 44.7589L43.2465 46.2685C42.3818 47.1333 41.696 48.16 41.2281 49.2898C40.7603 50.4197 40.5196 51.6306 40.5197 52.8535V54.319C40.5197 55.7829 39.9382 57.1869 38.903 58.222C37.8679 59.2572 36.4639 59.8387 35 59.8387C33.5361 59.8387 32.1321 59.2572 31.097 58.222C30.0618 57.1869 29.4803 55.7829 29.4803 54.319V52.8535C29.4803 50.3835 28.4978 48.0127 26.7536 46.2685L25.2412 44.7589Z"/>
<path d="M70 35C70 54.33 54.33 70 35 70C15.67 70 0 54.33 0 35C0 15.67 15.67 0 35 0C54.33 0 70 15.67 70 35Z"/>
</mask>
<path d="M28.5502 48.2993C28.2741 48.2993 28.0502 48.5232 28.0502 48.7993C28.0502 49.0754 28.2741 49.2993 28.5502 49.2993V48.2993ZM41.447 49.2993C41.7232 49.2993 41.947 49.0754 41.947 48.7993C41.947 48.5232 41.7232 48.2993 41.447 48.2993V49.2993ZM35.5 10.1613C35.5 9.88517 35.2762 9.66131 35 9.66131C34.7239 9.66131 34.5 9.88517 34.5 10.1613H35.5ZM34.5 12.9212C34.5 13.1973 34.7239 13.4212 35 13.4212C35.2762 13.4212 35.5 13.1973 35.5 12.9212H34.5ZM52.9173 17.7898C53.1126 17.5946 53.1126 17.278 52.9173 17.0827C52.722 16.8875 52.4055 16.8875 52.2102 17.0827L52.9173 17.7898ZM50.259 19.034C50.0637 19.2292 50.0637 19.5458 50.259 19.7411C50.4542 19.9363 50.7708 19.9363 50.9661 19.7411L50.259 19.034ZM59.8387 35.5C60.1149 35.5 60.3387 35.2762 60.3387 35C60.3387 34.7239 60.1149 34.5 59.8387 34.5V35.5ZM57.0789 34.5C56.8027 34.5 56.5789 34.7239 56.5789 35C56.5789 35.2762 56.8027 35.5 57.0789 35.5V34.5ZM12.9212 35.5C13.1973 35.5 13.4212 35.2762 13.4212 35C13.4212 34.7239 13.1973 34.5 12.9212 34.5V35.5ZM10.1613 34.5C9.88517 34.5 9.66131 34.7239 9.66131 35C9.66131 35.2762 9.88517 35.5 10.1613 35.5V34.5ZM19.034 19.7411C19.2292 19.9363 19.5458 19.9363 19.7411 19.7411C19.9363 19.5458 19.9363 19.2292 19.7411 19.034L19.034 19.7411ZM17.7898 17.0827C17.5946 16.8875 17.278 16.8875 17.0827 17.0827C16.8875 17.278 16.8875 17.5946 17.0827 17.7898L17.7898 17.0827ZM28.5502 49.2993H41.447V48.2993H28.5502V49.2993ZM34.5 10.1613V12.9212H35.5V10.1613H34.5ZM52.2102 17.0827L50.259 19.034L50.9661 19.7411L52.9173 17.7898L52.2102 17.0827ZM59.8387 34.5H57.0789V35.5H59.8387V34.5ZM12.9212 34.5H10.1613V35.5H12.9212V34.5ZM19.7411 19.034L17.7898 17.0827L17.0827 17.7898L19.034 19.7411L19.7411 19.034ZM25.2412 44.7589L24.534 45.4659L24.5347 45.4666L25.2412 44.7589ZM44.7589 44.7589L45.4653 45.4666L45.4661 45.4659L44.7589 44.7589ZM43.2465 46.2685L42.54 45.5608L42.5393 45.5615L43.2465 46.2685ZM40.5197 52.8535L41.5197 52.8535L41.5197 52.8534L40.5197 52.8535ZM26.7536 46.2685L27.4607 45.5614L27.46 45.5608L26.7536 46.2685ZM25.9484 44.0519C24.1587 42.2617 22.94 39.9811 22.4464 37.4984L20.4848 37.8884C21.0555 40.759 22.4646 43.396 24.534 45.4659L25.9484 44.0519ZM22.4464 37.4984C21.9528 35.0156 22.2065 32.4423 23.1753 30.1037L21.3276 29.3383C20.2074 32.0422 19.9141 35.0177 20.4848 37.8884L22.4464 37.4984ZM23.1753 30.1037C24.1442 27.7652 25.7847 25.7664 27.8895 24.3601L26.7784 22.6972C24.3447 24.3232 22.4479 26.6343 21.3276 29.3383L23.1753 30.1037ZM27.8895 24.3601C29.9942 22.9539 32.4687 22.2033 35 22.2033V20.2033C32.0732 20.2033 29.212 21.0712 26.7784 22.6972L27.8895 24.3601ZM35 22.2033C37.5313 22.2033 40.0058 22.9539 42.1106 24.3601L43.2217 22.6972C40.788 21.0712 37.9269 20.2033 35 20.2033V22.2033ZM42.1106 24.3601C44.2153 25.7664 45.8558 27.7652 46.8247 30.1037L48.6724 29.3383C47.5522 26.6343 45.6553 24.3232 43.2217 22.6972L42.1106 24.3601ZM46.8247 30.1037C47.7935 32.4423 48.0472 35.0156 47.5536 37.4984L49.5152 37.8884C50.0859 35.0177 49.7926 32.0422 48.6724 29.3383L46.8247 30.1037ZM47.5536 37.4984C47.06 39.9811 45.8413 42.2617 44.0517 44.0519L45.4661 45.4659C47.5354 43.396 48.9445 40.759 49.5152 37.8884L47.5536 37.4984ZM44.0524 44.0511L42.54 45.5608L43.9529 46.9763L45.4653 45.4666L44.0524 44.0511ZM42.5393 45.5615C41.5818 46.5191 40.8223 47.656 40.3042 48.9072L42.1521 49.6724C42.5697 48.6639 43.1819 47.7475 43.9536 46.9756L42.5393 45.5615ZM40.3042 48.9072C39.7861 50.1584 39.5196 51.4994 39.5197 52.8537L41.5197 52.8534C41.5196 51.7618 41.7345 50.6809 42.1521 49.6724L40.3042 48.9072ZM39.5197 52.8535V54.319H41.5197V52.8535H39.5197ZM39.5197 54.319C39.5197 55.5177 39.0435 56.6673 38.1959 57.5149L39.6102 58.9291C40.8328 57.7065 41.5197 56.0482 41.5197 54.319H39.5197ZM38.1959 57.5149C37.3483 58.3625 36.1987 58.8387 35 58.8387V60.8387C36.7292 60.8387 38.3875 60.1518 39.6102 58.9291L38.1959 57.5149ZM35 58.8387C33.8013 58.8387 32.6517 58.3625 31.8041 57.5149L30.3899 58.9291C31.6126 60.1518 33.2709 60.8387 35 60.8387V58.8387ZM31.8041 57.5149C30.9565 56.6673 30.4803 55.5177 30.4803 54.319H28.4803C28.4803 56.0482 29.1672 57.7065 30.3899 58.9291L31.8041 57.5149ZM30.4803 54.319V52.8535H28.4803V54.319H30.4803ZM30.4803 52.8535C30.4803 50.1183 29.3925 47.4932 27.4607 45.5614L26.0465 46.9756C27.6031 48.5323 28.4803 50.6486 28.4803 52.8535H30.4803ZM27.46 45.5608L25.9476 44.0511L24.5347 45.4666L26.0471 46.9763L27.46 45.5608ZM69 35C69 53.7777 53.7777 69 35 69V71C54.8823 71 71 54.8823 71 35H69ZM35 69C16.2223 69 1 53.7777 1 35H-1C-1 54.8823 15.1177 71 35 71V69ZM1 35C1 16.2223 16.2223 1 35 1V-1C15.1177 -1 -1 15.1177 -1 35H1ZM35 1C53.7777 1 69 16.2223 69 35H71C71 15.1177 54.8823 -1 35 -1V1Z" fill="#EC7979" mask="url(#path-1-inside-1_7402_339)"/>
</symbol>

<symbol id="card_2" viewBox="0 0 92 92" fill="none"> 
<mask id="path-1-inside-1_7402_340" fill="white">
<path d="M71.5733 23C73.543 23 75.432 23.7786 76.8248 25.1645C78.2176 26.5505 79.0001 28.4302 79.0001 30.3902V61.6098C79.0001 63.5698 78.2176 65.4495 76.8248 66.8355C75.432 68.2214 73.543 69 71.5733 69H20.427C19.4517 69 18.4859 68.8088 17.5848 68.4375C16.6838 68.0661 15.865 67.5217 15.1754 66.8355C14.4858 66.1492 13.9387 65.3345 13.5655 64.4379C13.1922 63.5413 13.0001 62.5803 13.0001 61.6098V30.3902C13.0001 28.4302 13.7826 26.5505 15.1754 25.1645C16.5682 23.7786 18.4573 23 20.427 23H71.5733ZM71.5733 27.9268H20.427C19.7704 27.9268 19.1407 28.1863 18.6765 28.6483C18.2122 29.1103 17.9514 29.7369 17.9514 30.3902V61.6098C17.9514 62.9696 19.0604 64.0732 20.427 64.0732H71.5733C72.2298 64.0732 72.8595 63.8137 73.3238 63.3517C73.7881 62.8897 74.0489 62.2631 74.0489 61.6098V30.3902C74.0489 29.7369 73.7881 29.1103 73.3238 28.6483C72.8595 28.1863 72.2298 27.9268 71.5733 27.9268ZM28.679 54.2031H63.3377C63.9649 54.2033 64.5687 54.4404 65.027 54.8665C65.4854 55.2926 65.7641 55.876 65.8068 56.4986C65.8496 57.1213 65.6532 57.737 65.2574 58.2211C64.8615 58.7053 64.2958 59.0219 63.6744 59.107L63.3377 59.13H28.679C28.0518 59.1298 27.448 58.8927 26.9897 58.4666C26.5314 58.0405 26.2527 57.4571 26.2099 56.8345C26.1672 56.2118 26.3636 55.5961 26.7594 55.112C27.1552 54.6278 27.721 54.3112 28.3424 54.2261L28.679 54.2031ZM60.8621 42.7072C61.7375 42.7072 62.5771 43.0533 63.1961 43.6693C63.8152 44.2852 64.1629 45.1207 64.1629 45.9918C64.1629 46.8629 63.8152 47.6983 63.1961 48.3143C62.5771 48.9303 61.7375 49.2763 60.8621 49.2763C59.9867 49.2763 59.1471 48.9303 58.528 48.3143C57.909 47.6983 57.5613 46.8629 57.5613 45.9918C57.5613 45.1207 57.909 44.2852 58.528 43.6693C59.1471 43.0533 59.9867 42.7072 60.8621 42.7072ZM41.0736 42.7072C41.9491 42.7072 42.7887 43.0533 43.4077 43.6693C44.0267 44.2852 44.3745 45.1207 44.3745 45.9918C44.3745 46.8629 44.0267 47.6983 43.4077 48.3143C42.7887 48.9303 41.9491 49.2763 41.0736 49.2763C40.1982 49.2763 39.3586 48.9303 38.7396 48.3143C38.1206 47.6983 37.7728 46.8629 37.7728 45.9918C37.7728 45.1207 38.1206 44.2852 38.7396 43.6693C39.3586 43.0533 40.1982 42.7072 41.0736 42.7072ZM31.1712 42.7072C32.0466 42.7072 32.8862 43.0533 33.5052 43.6693C34.1242 44.2852 34.472 45.1207 34.472 45.9918C34.472 46.8629 34.1242 47.6983 33.5052 48.3143C32.8862 48.9303 32.0466 49.2763 31.1712 49.2763C30.2957 49.2763 29.4562 48.9303 28.8371 48.3143C28.2181 47.6983 27.8703 46.8629 27.8703 45.9918C27.8703 45.1207 28.2181 44.2852 28.8371 43.6693C29.4562 43.0533 30.2957 42.7072 31.1712 42.7072ZM50.9761 42.7072C51.8515 42.7072 52.6911 43.0533 53.3102 43.6693C53.9292 44.2852 54.2769 45.1207 54.2769 45.9918C54.2769 46.8629 53.9292 47.6983 53.3102 48.3143C52.6911 48.9303 51.8515 49.2763 50.9761 49.2763C50.1007 49.2763 49.2611 48.9303 48.6421 48.3143C48.0231 47.6983 47.6753 46.8629 47.6753 45.9918C47.6753 45.1207 48.0231 44.2852 48.6421 43.6693C49.2611 43.0533 50.1007 42.7072 50.9761 42.7072ZM26.2034 32.8536C27.0789 32.8536 27.9184 33.1997 28.5375 33.8156C29.1565 34.4316 29.5042 35.267 29.5042 36.1382C29.5042 37.0093 29.1565 37.8447 28.5375 38.4607C27.9184 39.0767 27.0789 39.4227 26.2034 39.4227C25.328 39.4227 24.4884 39.0767 23.8694 38.4607C23.2504 37.8447 22.9026 37.0093 22.9026 36.1382C22.9026 35.267 23.2504 34.4316 23.8694 33.8156C24.4884 33.1997 25.328 32.8536 26.2034 32.8536ZM36.0894 32.8536C36.9648 32.8536 37.8044 33.1997 38.4234 33.8156C39.0425 34.4316 39.3902 35.267 39.3902 36.1382C39.3902 37.0093 39.0425 37.8447 38.4234 38.4607C37.8044 39.0767 36.9648 39.4227 36.0894 39.4227C35.214 39.4227 34.3744 39.0767 33.7554 38.4607C33.1363 37.8447 32.7886 37.0093 32.7886 36.1382C32.7886 35.267 33.1363 34.4316 33.7554 33.8156C34.3744 33.1997 35.214 32.8536 36.0894 32.8536ZM45.9919 32.8536C46.8673 32.8536 47.7069 33.1997 48.3259 33.8156C48.9449 34.4316 49.2927 35.267 49.2927 36.1382C49.2927 37.0093 48.9449 37.8447 48.3259 38.4607C47.7069 39.0767 46.8673 39.4227 45.9919 39.4227C45.1164 39.4227 44.2769 39.0767 43.6578 38.4607C43.0388 37.8447 42.691 37.0093 42.691 36.1382C42.691 35.267 43.0388 34.4316 43.6578 33.8156C44.2769 33.1997 45.1164 32.8536 45.9919 32.8536ZM55.8943 32.8536C56.7698 32.8536 57.6094 33.1997 58.2284 33.8156C58.8474 34.4316 59.1952 35.267 59.1952 36.1382C59.1952 37.0093 58.8474 37.8447 58.2284 38.4607C57.6094 39.0767 56.7698 39.4227 55.8943 39.4227C55.0189 39.4227 54.1793 39.0767 53.5603 38.4607C52.9413 37.8447 52.5935 37.0093 52.5935 36.1382C52.5935 35.267 52.9413 34.4316 53.5603 33.8156C54.1793 33.1997 55.0189 32.8536 55.8943 32.8536ZM65.7968 32.8536C66.6723 32.8536 67.5118 33.1997 68.1309 33.8156C68.7499 34.4316 69.0976 35.267 69.0976 36.1382C69.0976 37.0093 68.7499 37.8447 68.1309 38.4607C67.5118 39.0767 66.6723 39.4227 65.7968 39.4227C64.9214 39.4227 64.0818 39.0767 63.4628 38.4607C62.8438 37.8447 62.496 37.0093 62.496 36.1382C62.496 35.267 62.8438 34.4316 63.4628 33.8156C64.0818 33.1997 64.9214 32.8536 65.7968 32.8536Z"/>
<path d="M92.0001 46C92.0001 71.4051 71.4052 92 46.0001 92C20.595 92 0.00012207 71.4051 0.00012207 46C0.00012207 20.5949 20.595 0 46.0001 0C71.4052 0 92.0001 20.5949 92.0001 46Z"/>
</mask>
<path d="M71.5733 23V22V23ZM76.8248 25.1645L77.5302 24.4557L77.5302 24.4557L76.8248 25.1645ZM76.8248 66.8355L77.5302 67.5443L77.5302 67.5443L76.8248 66.8355ZM17.5848 68.4375L17.9659 67.5129L17.9659 67.5129L17.5848 68.4375ZM13.5655 64.4379L14.4887 64.0536L14.4887 64.0536L13.5655 64.4379ZM13.0001 30.3902H12.0001H13.0001ZM15.1754 25.1645L14.47 24.4557L15.1754 25.1645ZM18.6765 28.6483L19.3818 29.3572L18.6765 28.6483ZM73.3238 63.3517L72.6184 62.6428L72.6184 62.6428L73.3238 63.3517ZM73.3238 28.6483L72.6184 29.3572L72.6184 29.3572L73.3238 28.6483ZM28.679 54.2031V53.2031H28.6449L28.6109 53.2055L28.679 54.2031ZM63.3377 54.2031L63.338 53.2031H63.3377V54.2031ZM65.8068 56.4986L64.8092 56.5671L64.8092 56.5671L65.8068 56.4986ZM63.6744 59.107L63.7425 60.1046L63.7764 60.1023L63.81 60.0977L63.6744 59.107ZM63.3377 59.13V60.13H63.3718L63.4058 60.1276L63.3377 59.13ZM28.679 59.13L28.6787 60.13H28.679V59.13ZM26.9897 58.4666L26.3088 59.199L26.3088 59.199L26.9897 58.4666ZM26.7594 55.112L27.5336 55.7449L27.5336 55.7449L26.7594 55.112ZM28.3424 54.2261L28.2742 53.2285L28.2403 53.2308L28.2067 53.2354L28.3424 54.2261ZM63.1961 43.6693L62.4908 44.3781L62.4908 44.3781L63.1961 43.6693ZM58.528 48.3143L57.8227 49.0232L57.8227 49.0232L58.528 48.3143ZM58.528 43.6693L57.8227 42.9604L57.8227 42.9604L58.528 43.6693ZM43.4077 43.6693L42.7023 44.3781L42.7023 44.3781L43.4077 43.6693ZM43.4077 48.3143L42.7023 47.6055L42.7023 47.6055L43.4077 48.3143ZM38.7396 43.6693L39.445 44.3781L39.445 44.3781L38.7396 43.6693ZM33.5052 43.6693L32.7998 44.3781L32.7998 44.3781L33.5052 43.6693ZM33.5052 48.3143L32.7998 47.6055L32.7998 47.6055L33.5052 48.3143ZM28.8371 43.6693L29.5425 44.3781L29.5425 44.3781L28.8371 43.6693ZM53.3102 43.6693L52.6048 44.3781L52.6048 44.3781L53.3102 43.6693ZM48.6421 48.3143L47.9367 49.0232L47.9367 49.0232L48.6421 48.3143ZM48.6421 43.6693L47.9367 42.9604L47.9367 42.9604L48.6421 43.6693ZM28.5375 33.8156L29.2428 33.1068L28.5375 33.8156ZM28.5375 38.4607L27.8321 37.7518L27.8321 37.7518L28.5375 38.4607ZM23.8694 38.4607L24.5747 37.7518L24.5747 37.7518L23.8694 38.4607ZM23.8694 33.8156L23.164 33.1068L23.8694 33.8156ZM38.4234 33.8156L39.1288 33.1068L39.1288 33.1068L38.4234 33.8156ZM38.4234 38.4607L39.1288 39.1695L39.1288 39.1695L38.4234 38.4607ZM33.7554 38.4607L33.05 39.1695L33.05 39.1695L33.7554 38.4607ZM33.7554 33.8156L33.05 33.1068L33.05 33.1068L33.7554 33.8156ZM48.3259 33.8156L49.0313 33.1068L49.0313 33.1068L48.3259 33.8156ZM48.3259 38.4607L49.0313 39.1695L49.0313 39.1695L48.3259 38.4607ZM43.6578 38.4607L42.9525 39.1695L42.9525 39.1695L43.6578 38.4607ZM43.6578 33.8156L42.9525 33.1068L42.9525 33.1068L43.6578 33.8156ZM58.2284 33.8156L57.523 34.5245L57.523 34.5245L58.2284 33.8156ZM58.2284 38.4607L57.523 37.7518L57.523 37.7518L58.2284 38.4607ZM53.5603 38.4607L54.2657 37.7518L54.2657 37.7518L53.5603 38.4607ZM53.5603 33.8156L54.2657 34.5245L54.2657 34.5245L53.5603 33.8156ZM68.1309 33.8156L68.8362 33.1068L68.8362 33.1068L68.1309 33.8156ZM68.1309 38.4607L68.8362 39.1695L68.8362 39.1695L68.1309 38.4607ZM63.4628 33.8156L62.7574 33.1068L62.7574 33.1068L63.4628 33.8156ZM71.5733 24C73.2794 24 74.9146 24.6744 76.1195 25.8734L77.5302 24.4557C75.9495 22.8828 73.8066 22 71.5733 22V24ZM76.1195 25.8734C77.3242 27.0722 78.0001 28.697 78.0001 30.3902H80.0001C80.0001 28.1634 79.1111 26.0288 77.5302 24.4557L76.1195 25.8734ZM78.0001 30.3902V61.6098H80.0001V30.3902H78.0001ZM78.0001 61.6098C78.0001 63.303 77.3242 64.9278 76.1195 66.1266L77.5302 67.5443C79.1111 65.9712 80.0001 63.8366 80.0001 61.6098H78.0001ZM76.1195 66.1266C74.9146 67.3256 73.2794 68 71.5733 68V70C73.8066 70 75.9495 69.1172 77.5302 67.5443L76.1195 66.1266ZM71.5733 68H20.427V70H71.5733V68ZM20.427 68C19.5823 68 18.746 67.8344 17.9659 67.5129L17.2038 69.362C18.2258 69.7833 19.321 70 20.427 70V68ZM17.9659 67.5129C17.1858 67.1914 16.4773 66.7202 15.8808 66.1266L14.47 67.5443C15.2528 68.3232 16.1817 68.9408 17.2038 69.362L17.9659 67.5129ZM15.8808 66.1266C15.2842 65.533 14.8113 64.8285 14.4887 64.0536L12.6423 64.8222C13.0661 65.8405 13.6873 66.7654 14.47 67.5443L15.8808 66.1266ZM14.4887 64.0536C14.1661 63.2787 14.0001 62.4483 14.0001 61.6098H12.0001C12.0001 62.7123 12.2184 63.8039 12.6423 64.8222L14.4887 64.0536ZM14.0001 61.6098V30.3902H12.0001V61.6098H14.0001ZM14.0001 30.3902C14.0001 28.697 14.676 27.0722 15.8808 25.8734L14.47 24.4557C12.8892 26.0288 12.0001 28.1634 12.0001 30.3902L14.0001 30.3902ZM15.8808 25.8734C17.0856 24.6744 18.7209 24 20.427 24V22C18.1936 22 16.0508 22.8828 14.47 24.4557L15.8808 25.8734ZM20.427 24H71.5733V22H20.427V24ZM71.5733 26.9268H20.427V28.9268H71.5733V26.9268ZM20.427 26.9268C19.5068 26.9268 18.6233 27.2905 17.9711 27.9395L19.3818 29.3572C19.6582 29.0822 20.034 28.9268 20.427 28.9268V26.9268ZM17.9711 27.9395C17.3187 28.5886 16.9514 29.4701 16.9514 30.3902H18.9514C18.9514 30.0037 19.1056 29.632 19.3818 29.3572L17.9711 27.9395ZM16.9514 30.3902V61.6098H18.9514V30.3902H16.9514ZM16.9514 61.6098C16.9514 63.5265 18.5128 65.0732 20.427 65.0732V63.0732C19.6081 63.0732 18.9514 62.4126 18.9514 61.6098H16.9514ZM20.427 65.0732H71.5733V63.0732H20.427V65.0732ZM71.5733 65.0732C72.4935 65.0732 73.377 64.7095 74.0291 64.0605L72.6184 62.6428C72.3421 62.9178 71.9662 63.0732 71.5733 63.0732V65.0732ZM74.0291 64.0605C74.6815 63.4114 75.0489 62.5299 75.0489 61.6098H73.0489C73.0489 61.9963 72.8946 62.368 72.6184 62.6428L74.0291 64.0605ZM75.0489 61.6098V30.3902H73.0489V61.6098H75.0489ZM75.0489 30.3902C75.0489 29.4701 74.6815 28.5886 74.0291 27.9395L72.6184 29.3572C72.8946 29.632 73.0489 30.0037 73.0489 30.3902H75.0489ZM74.0291 27.9395C73.377 27.2905 72.4935 26.9268 71.5733 26.9268V28.9268C71.9662 28.9268 72.3421 29.0822 72.6184 29.3572L74.0291 27.9395ZM28.679 55.2031H63.3377V53.2031H28.679V55.2031ZM63.3374 55.2031C63.7128 55.2033 64.0732 55.3452 64.3461 55.5989L65.7079 54.1341C65.0642 53.5357 64.2171 53.2034 63.338 53.2031L63.3374 55.2031ZM64.3461 55.5989C64.6189 55.8525 64.7839 56.1987 64.8092 56.5671L66.8045 56.4302C66.7443 55.5532 66.3518 54.7327 65.7079 54.1341L64.3461 55.5989ZM64.8092 56.5671C64.8345 56.9356 64.7184 57.3005 64.4832 57.5882L66.0316 58.8541C66.588 58.1734 66.8647 57.3071 66.8045 56.4302L64.8092 56.5671ZM64.4832 57.5882C64.2478 57.876 63.9105 58.0653 63.5387 58.1162L63.81 60.0977C64.681 59.9785 65.4752 59.5345 66.0316 58.8541L64.4832 57.5882ZM63.6063 58.1093L63.2696 58.1323L63.4058 60.1276L63.7425 60.1046L63.6063 58.1093ZM63.3377 58.13H28.679V60.13H63.3377V58.13ZM28.6793 58.13C28.304 58.1298 27.9435 57.9879 27.6706 57.7342L26.3088 59.199C26.9525 59.7974 27.7996 60.1297 28.6787 60.13L28.6793 58.13ZM27.6706 57.7342C27.3978 57.4806 27.2329 57.1344 27.2076 56.766L25.2123 56.9029C25.2725 57.7799 25.6649 58.6003 26.3088 59.199L27.6706 57.7342ZM27.2076 56.766C27.1823 56.3975 27.2984 56.0326 27.5336 55.7449L25.9852 54.479C25.4287 55.1597 25.1521 56.026 25.2123 56.9029L27.2076 56.766ZM27.5336 55.7449C27.7689 55.4571 28.1062 55.2678 28.478 55.2169L28.2067 53.2354C27.3357 53.3546 26.5415 53.7986 25.9852 54.479L27.5336 55.7449ZM28.4105 55.2238L28.7472 55.2008L28.6109 53.2055L28.2742 53.2285L28.4105 55.2238ZM60.8621 43.7072C61.4739 43.7072 62.0597 43.9491 62.4908 44.3781L63.9015 42.9604C63.0945 42.1575 62.0011 41.7072 60.8621 41.7072V43.7072ZM62.4908 44.3781C62.9217 44.8069 63.1629 45.3875 63.1629 45.9918H65.1629C65.1629 44.8539 64.7086 43.7635 63.9015 42.9604L62.4908 44.3781ZM63.1629 45.9918C63.1629 46.5961 62.9217 47.1766 62.4908 47.6055L63.9015 49.0232C64.7086 48.22 65.1629 47.1297 65.1629 45.9918H63.1629ZM62.4908 47.6055C62.0597 48.0344 61.4739 48.2763 60.8621 48.2763V50.2763C62.0011 50.2763 63.0945 49.8261 63.9015 49.0232L62.4908 47.6055ZM60.8621 48.2763C60.2503 48.2763 59.6645 48.0344 59.2334 47.6055L57.8227 49.0232C58.6296 49.8261 59.723 50.2763 60.8621 50.2763V48.2763ZM59.2334 47.6055C58.8025 47.1766 58.5613 46.5961 58.5613 45.9918H56.5613C56.5613 47.1297 57.0156 48.22 57.8227 49.0232L59.2334 47.6055ZM58.5613 45.9918C58.5613 45.3875 58.8025 44.8069 59.2334 44.3781L57.8227 42.9604C57.0156 43.7635 56.5613 44.8539 56.5613 45.9918H58.5613ZM59.2334 44.3781C59.6645 43.9491 60.2503 43.7072 60.8621 43.7072V41.7072C59.723 41.7072 58.6296 42.1575 57.8227 42.9604L59.2334 44.3781ZM41.0736 43.7072C41.6854 43.7072 42.2712 43.9491 42.7023 44.3781L44.113 42.9604C43.3061 42.1575 42.2127 41.7072 41.0736 41.7072V43.7072ZM42.7023 44.3781C43.1333 44.8069 43.3745 45.3875 43.3745 45.9918H45.3745C45.3745 44.8539 44.9201 43.7635 44.113 42.9604L42.7023 44.3781ZM43.3745 45.9918C43.3745 46.5961 43.1333 47.1766 42.7023 47.6055L44.113 49.0232C44.9201 48.22 45.3745 47.1297 45.3745 45.9918H43.3745ZM42.7023 47.6055C42.2712 48.0344 41.6854 48.2763 41.0736 48.2763V50.2763C42.2127 50.2763 43.3061 49.8261 44.113 49.0232L42.7023 47.6055ZM41.0736 48.2763C40.4618 48.2763 39.8761 48.0344 39.445 47.6055L38.0342 49.0232C38.8412 49.8261 39.9346 50.2763 41.0736 50.2763V48.2763ZM39.445 47.6055C39.014 47.1766 38.7728 46.5961 38.7728 45.9918H36.7728C36.7728 47.1297 37.2271 48.22 38.0342 49.0232L39.445 47.6055ZM38.7728 45.9918C38.7728 45.3875 39.014 44.8069 39.445 44.3781L38.0342 42.9604C37.2271 43.7635 36.7728 44.8539 36.7728 45.9918H38.7728ZM39.445 44.3781C39.8761 43.9491 40.4618 43.7072 41.0736 43.7072V41.7072C39.9346 41.7072 38.8412 42.1575 38.0342 42.9604L39.445 44.3781ZM31.1712 43.7072C31.783 43.7072 32.3687 43.9491 32.7998 44.3781L34.2106 42.9604C33.4036 42.1575 32.3102 41.7072 31.1712 41.7072V43.7072ZM32.7998 44.3781C33.2308 44.8069 33.472 45.3875 33.472 45.9918H35.472C35.472 44.8539 35.0177 43.7635 34.2106 42.9604L32.7998 44.3781ZM33.472 45.9918C33.472 46.5961 33.2308 47.1766 32.7998 47.6055L34.2106 49.0232C35.0177 48.22 35.472 47.1297 35.472 45.9918H33.472ZM32.7998 47.6055C32.3687 48.0344 31.783 48.2763 31.1712 48.2763V50.2763C32.3102 50.2763 33.4036 49.8261 34.2106 49.0232L32.7998 47.6055ZM31.1712 48.2763C30.5594 48.2763 29.9736 48.0344 29.5425 47.6055L28.1318 49.0232C28.9387 49.8261 30.0321 50.2763 31.1712 50.2763V48.2763ZM29.5425 47.6055C29.1115 47.1766 28.8703 46.5961 28.8703 45.9918H26.8703C26.8703 47.1297 27.3247 48.22 28.1318 49.0232L29.5425 47.6055ZM28.8703 45.9918C28.8703 45.3875 29.1115 44.8069 29.5425 44.3781L28.1318 42.9604C27.3247 43.7635 26.8703 44.8539 26.8703 45.9918H28.8703ZM29.5425 44.3781C29.9736 43.9491 30.5594 43.7072 31.1712 43.7072V41.7072C30.0321 41.7072 28.9387 42.1575 28.1318 42.9604L29.5425 44.3781ZM50.9761 43.7072C51.5879 43.7072 52.1737 43.9491 52.6048 44.3781L54.0155 42.9604C53.2086 42.1575 52.1152 41.7072 50.9761 41.7072V43.7072ZM52.6048 44.3781C53.0357 44.8069 53.2769 45.3875 53.2769 45.9918H55.2769C55.2769 44.8539 54.8226 43.7635 54.0155 42.9604L52.6048 44.3781ZM53.2769 45.9918C53.2769 46.5961 53.0357 47.1766 52.6048 47.6055L54.0155 49.0232C54.8226 48.22 55.2769 47.1297 55.2769 45.9918H53.2769ZM52.6048 47.6055C52.1737 48.0344 51.5879 48.2763 50.9761 48.2763V50.2763C52.1152 50.2763 53.2086 49.8261 54.0155 49.0232L52.6048 47.6055ZM50.9761 48.2763C50.3643 48.2763 49.7785 48.0344 49.3474 47.6055L47.9367 49.0232C48.7437 49.8261 49.8371 50.2763 50.9761 50.2763V48.2763ZM49.3474 47.6055C48.9165 47.1766 48.6753 46.5961 48.6753 45.9918H46.6753C46.6753 47.1297 47.1296 48.22 47.9367 49.0232L49.3474 47.6055ZM48.6753 45.9918C48.6753 45.3875 48.9165 44.8069 49.3474 44.3781L47.9367 42.9604C47.1296 43.7635 46.6753 44.8539 46.6753 45.9918H48.6753ZM49.3474 44.3781C49.7785 43.9491 50.3643 43.7072 50.9761 43.7072V41.7072C49.8371 41.7072 48.7437 42.1575 47.9367 42.9604L49.3474 44.3781ZM26.2034 33.8536C26.8152 33.8536 27.401 34.0955 27.8321 34.5245L29.2428 33.1068C28.4359 32.3038 27.3425 31.8536 26.2034 31.8536V33.8536ZM27.8321 34.5245C28.263 34.9533 28.5042 35.5339 28.5042 36.1382H30.5042C30.5042 35.0002 30.0499 33.9099 29.2428 33.1068L27.8321 34.5245ZM28.5042 36.1382C28.5042 36.7425 28.263 37.323 27.8321 37.7518L29.2428 39.1695C30.0499 38.3664 30.5042 37.2761 30.5042 36.1382H28.5042ZM27.8321 37.7518C27.401 38.1808 26.8152 38.4227 26.2034 38.4227V40.4227C27.3425 40.4227 28.4359 39.9725 29.2428 39.1695L27.8321 37.7518ZM26.2034 38.4227C25.5916 38.4227 25.0059 38.1808 24.5747 37.7518L23.164 39.1695C23.971 39.9725 25.0644 40.4227 26.2034 40.4227V38.4227ZM24.5747 37.7518C24.1438 37.323 23.9026 36.7425 23.9026 36.1382H21.9026C21.9026 37.2761 22.3569 38.3664 23.164 39.1695L24.5747 37.7518ZM23.9026 36.1382C23.9026 35.5339 24.1438 34.9533 24.5747 34.5245L23.164 33.1068C22.3569 33.9099 21.9026 35.0002 21.9026 36.1382H23.9026ZM24.5747 34.5245C25.0059 34.0955 25.5916 33.8536 26.2034 33.8536V31.8536C25.0644 31.8536 23.971 32.3038 23.164 33.1068L24.5747 34.5245ZM36.0894 33.8536C36.7012 33.8536 37.287 34.0955 37.7181 34.5245L39.1288 33.1068C38.3218 32.3038 37.2285 31.8536 36.0894 31.8536V33.8536ZM37.7181 34.5245C38.149 34.9533 38.3902 35.5339 38.3902 36.1382H40.3902C40.3902 35.0002 39.9359 33.9099 39.1288 33.1068L37.7181 34.5245ZM38.3902 36.1382C38.3902 36.7425 38.149 37.323 37.7181 37.7518L39.1288 39.1695C39.9359 38.3664 40.3902 37.2761 40.3902 36.1382H38.3902ZM37.7181 37.7518C37.287 38.1808 36.7012 38.4227 36.0894 38.4227V40.4227C37.2285 40.4227 38.3218 39.9725 39.1288 39.1695L37.7181 37.7518ZM36.0894 38.4227C35.4776 38.4227 34.8918 38.1808 34.4607 37.7518L33.05 39.1695C33.8569 39.9725 34.9503 40.4227 36.0894 40.4227V38.4227ZM34.4607 37.7518C34.0298 37.323 33.7886 36.7425 33.7886 36.1382H31.7886C31.7886 37.2761 32.2429 38.3664 33.05 39.1695L34.4607 37.7518ZM33.7886 36.1382C33.7886 35.5339 34.0298 34.9533 34.4607 34.5245L33.05 33.1068C32.2429 33.9099 31.7886 35.0002 31.7886 36.1382H33.7886ZM34.4607 34.5245C34.8918 34.0955 35.4776 33.8536 36.0894 33.8536V31.8536C34.9503 31.8536 33.8569 32.3038 33.05 33.1068L34.4607 34.5245ZM45.9919 33.8536C46.6037 33.8536 47.1894 34.0955 47.6205 34.5245L49.0313 33.1068C48.2243 32.3038 47.1309 31.8536 45.9919 31.8536V33.8536ZM47.6205 34.5245C48.0515 34.9533 48.2927 35.5339 48.2927 36.1382H50.2927C50.2927 35.0002 49.8384 33.9099 49.0313 33.1068L47.6205 34.5245ZM48.2927 36.1382C48.2927 36.7425 48.0515 37.323 47.6205 37.7518L49.0313 39.1695C49.8384 38.3664 50.2927 37.2761 50.2927 36.1382H48.2927ZM47.6205 37.7518C47.1894 38.1808 46.6037 38.4227 45.9919 38.4227V40.4227C47.1309 40.4227 48.2243 39.9725 49.0313 39.1695L47.6205 37.7518ZM45.9919 38.4227C45.3801 38.4227 44.7943 38.1808 44.3632 37.7518L42.9525 39.1695C43.7594 39.9725 44.8528 40.4227 45.9919 40.4227V38.4227ZM44.3632 37.7518C43.9322 37.323 43.691 36.7425 43.691 36.1382H41.691C41.691 37.2761 42.1454 38.3664 42.9525 39.1695L44.3632 37.7518ZM43.691 36.1382C43.691 35.5339 43.9322 34.9533 44.3632 34.5245L42.9525 33.1068C42.1454 33.9099 41.691 35.0002 41.691 36.1382H43.691ZM44.3632 34.5245C44.7943 34.0955 45.3801 33.8536 45.9919 33.8536V31.8536C44.8528 31.8536 43.7594 32.3038 42.9525 33.1068L44.3632 34.5245ZM55.8943 33.8536C56.5062 33.8536 57.0919 34.0955 57.523 34.5245L58.9337 33.1068C58.1268 32.3038 57.0334 31.8536 55.8943 31.8536V33.8536ZM57.523 34.5245C57.954 34.9533 58.1952 35.5339 58.1952 36.1382H60.1952C60.1952 35.0002 59.7408 33.9099 58.9337 33.1068L57.523 34.5245ZM58.1952 36.1382C58.1952 36.7425 57.954 37.323 57.523 37.7518L58.9337 39.1695C59.7408 38.3664 60.1952 37.2761 60.1952 36.1382H58.1952ZM57.523 37.7518C57.0919 38.1808 56.5062 38.4227 55.8943 38.4227V40.4227C57.0334 40.4227 58.1268 39.9725 58.9337 39.1695L57.523 37.7518ZM55.8943 38.4227C55.2825 38.4227 54.6968 38.1808 54.2657 37.7518L52.855 39.1695C53.6619 39.9725 54.7553 40.4227 55.8943 40.4227V38.4227ZM54.2657 37.7518C53.8347 37.323 53.5935 36.7425 53.5935 36.1382H51.5935C51.5935 37.2761 52.0479 38.3664 52.855 39.1695L54.2657 37.7518ZM53.5935 36.1382C53.5935 35.5339 53.8347 34.9533 54.2657 34.5245L52.855 33.1068C52.0479 33.9099 51.5935 35.0002 51.5935 36.1382H53.5935ZM54.2657 34.5245C54.6968 34.0955 55.2825 33.8536 55.8943 33.8536V31.8536C54.7553 31.8536 53.6619 32.3038 52.855 33.1068L54.2657 34.5245ZM65.7968 33.8536C66.4086 33.8536 66.9944 34.0955 67.4255 34.5245L68.8362 33.1068C68.0293 32.3038 66.9359 31.8536 65.7968 31.8536V33.8536ZM67.4255 34.5245C67.8564 34.9533 68.0976 35.5339 68.0976 36.1382H70.0976C70.0976 35.0002 69.6433 33.9099 68.8362 33.1068L67.4255 34.5245ZM68.0976 36.1382C68.0976 36.7425 67.8564 37.323 67.4255 37.7518L68.8362 39.1695C69.6433 38.3664 70.0976 37.2761 70.0976 36.1382H68.0976ZM67.4255 37.7518C66.9944 38.1808 66.4086 38.4227 65.7968 38.4227V40.4227C66.9359 40.4227 68.0293 39.9725 68.8362 39.1695L67.4255 37.7518ZM65.7968 38.4227C65.185 38.4227 64.5993 38.1808 64.1681 37.7518L62.7574 39.1695C63.5644 39.9725 64.6578 40.4227 65.7968 40.4227V38.4227ZM64.1681 37.7518C63.7372 37.323 63.496 36.7425 63.496 36.1382H61.496C61.496 37.2761 61.9503 38.3664 62.7574 39.1695L64.1681 37.7518ZM63.496 36.1382C63.496 35.5339 63.7372 34.9533 64.1681 34.5245L62.7574 33.1068C61.9503 33.9099 61.496 35.0002 61.496 36.1382H63.496ZM64.1681 34.5245C64.5993 34.0955 65.185 33.8536 65.7968 33.8536V31.8536C64.6578 31.8536 63.5644 32.3038 62.7574 33.1068L64.1681 34.5245ZM91.0001 46C91.0001 70.8528 70.8529 91 46.0001 91V93C71.9575 93 93.0001 71.9574 93.0001 46H91.0001ZM46.0001 91C21.1473 91 1.00012 70.8528 1.00012 46H-0.999878C-0.999878 71.9574 20.0427 93 46.0001 93V91ZM1.00012 46C1.00012 21.1472 21.1473 1 46.0001 1V-1C20.0427 -1 -0.999878 20.0426 -0.999878 46H1.00012ZM46.0001 1C70.8529 1 91.0001 21.1472 91.0001 46H93.0001C93.0001 20.0426 71.9575 -1 46.0001 -1V1Z" fill="#EC7979" mask="url(#path-1-inside-1_7402_340)"/>
 </symbol>

 <symbol id="card_3" viewBox="0 0 92 92" fill="none"> 
 <mask id="path-1-inside-1_7402_341" fill="white">
<path d="M36.7308 78.8114C36.2572 78.6078 35.8637 78.2494 35.6123 77.7927C35.3608 77.336 35.2659 76.8071 35.3423 76.2893L39.5542 48.3575H28.3765C28.0221 48.3672 27.6703 48.2939 27.3482 48.1432C27.026 47.9925 26.7422 47.7684 26.5186 47.4882C26.2949 47.2081 26.1375 46.8793 26.0584 46.5274C25.9793 46.1754 25.9806 45.8096 26.0622 45.4583L33.0049 14.8158C33.1271 14.2885 33.4239 13.8201 33.8454 13.4895C34.2669 13.1589 34.7874 12.9864 35.3192 13.0008H58.4615C58.8072 12.9996 59.1488 13.0774 59.4612 13.2283C59.7735 13.3792 60.0488 13.5995 60.2666 13.873C60.4875 14.1495 60.6439 14.4735 60.724 14.8206C60.8042 15.1676 60.806 15.5287 60.7294 15.8765L56.7258 34.2149H67.7184C68.1521 34.214 68.5774 34.3373 68.9456 34.5706C69.3139 34.804 69.6104 35.1381 69.8012 35.5348C69.967 35.9156 70.0308 36.3343 69.9861 36.7484C69.9414 37.1624 69.7898 37.557 69.5466 37.892L39.4616 77.9629C39.2583 78.2699 38.9868 78.5238 38.6692 78.7039C38.3515 78.8841 37.9967 78.9856 37.6334 79C37.3237 78.9941 37.0178 78.9302 36.7308 78.8114ZM50.9402 38.9291L55.5687 17.7151H37.1705L31.2924 43.6433H44.9695L41.2899 67.8744L63.0899 38.9291H50.9402Z"/>
<path d="M92 46C92 71.4051 71.4051 92 46 92C20.5949 92 0 71.4051 0 46C0 20.5949 20.5949 0 46 0C71.4051 0 92 20.5949 92 46Z"/>
</mask>
<path d="M36.7308 78.8114L36.3358 79.7302L36.3484 79.7354L36.7308 78.8114ZM35.6123 77.7927L34.7363 78.275L34.7363 78.275L35.6123 77.7927ZM35.3423 76.2893L34.3535 76.1402L34.353 76.1433L35.3423 76.2893ZM39.5542 48.3575L40.543 48.5066L40.7163 47.3575H39.5542V48.3575ZM28.3765 48.3575V47.3575H28.3628L28.3491 47.3579L28.3765 48.3575ZM26.5186 47.4882L25.737 48.1121L25.737 48.1121L26.5186 47.4882ZM26.0622 45.4583L27.0363 45.6847L27.0375 45.6793L26.0622 45.4583ZM33.0049 14.8158L32.0307 14.5901L32.0297 14.5948L33.0049 14.8158ZM35.3192 13.0008L35.2919 14.0005L35.3056 14.0008H35.3192V13.0008ZM58.4615 13.0008L58.4615 14.0008L58.4649 14.0008L58.4615 13.0008ZM59.4612 13.2283L59.8962 12.3279L59.8962 12.3279L59.4612 13.2283ZM60.2666 13.873L59.4843 14.496L59.4852 14.497L60.2666 13.873ZM60.724 14.8206L61.6984 14.5955L61.6984 14.5955L60.724 14.8206ZM60.7294 15.8765L59.7528 15.6614L59.7524 15.6632L60.7294 15.8765ZM56.7258 34.2149L55.7488 34.0016L55.4839 35.2149H56.7258V34.2149ZM67.7184 34.2149L67.7184 35.2149L67.7204 35.2149L67.7184 34.2149ZM68.9456 34.5706L68.4103 35.4153L68.4103 35.4153L68.9456 34.5706ZM69.8012 35.5348L70.718 35.1355L70.7105 35.1183L70.7023 35.1013L69.8012 35.5348ZM69.9861 36.7484L68.9919 36.641L68.9919 36.641L69.9861 36.7484ZM69.5466 37.892L70.3463 38.4924L70.3512 38.4859L70.3559 38.4794L69.5466 37.892ZM39.4616 77.9629L38.6619 77.3625L38.6442 77.3861L38.6279 77.4107L39.4616 77.9629ZM38.6692 78.7039L38.1758 77.8341L38.1758 77.8341L38.6692 78.7039ZM37.6334 79L37.6144 79.9998L37.6438 80.0004L37.6731 79.9992L37.6334 79ZM50.9402 38.9291L49.9632 38.7159L49.6985 39.9291H50.9402V38.9291ZM55.5687 17.7151L56.5457 17.9282L56.8104 16.7151H55.5687V17.7151ZM37.1705 17.7151V16.7151H36.3719L36.1953 17.494L37.1705 17.7151ZM31.2924 43.6433L30.3172 43.4222L30.0403 44.6433H31.2924V43.6433ZM44.9695 43.6433L45.9582 43.7934L46.1328 42.6433H44.9695V43.6433ZM41.2899 67.8744L40.3012 67.7243L42.0887 68.476L41.2899 67.8744ZM63.0899 38.9291L63.8887 39.5307L65.095 37.9291H63.0899V38.9291ZM37.1258 77.8927C36.8591 77.7781 36.6337 77.5746 36.4883 77.3104L34.7363 78.275C35.0937 78.9242 35.6554 79.4375 36.3359 79.7301L37.1258 77.8927ZM36.4883 77.3104C36.3427 77.046 36.2869 76.7379 36.3316 76.4354L34.353 76.1433C34.2448 76.8763 34.379 77.626 34.7363 78.275L36.4883 77.3104ZM36.3311 76.4384L40.543 48.5066L38.5654 48.2084L34.3535 76.1402L36.3311 76.4384ZM39.5542 47.3575H28.3765V49.3575H39.5542V47.3575ZM28.3491 47.3579C28.1509 47.3633 27.9535 47.3224 27.772 47.2374L26.9243 49.0489C27.387 49.2654 27.8933 49.3712 28.4039 49.3572L28.3491 47.3579ZM27.772 47.2374C27.5903 47.1524 27.4286 47.0253 27.3001 46.8644L25.737 48.1121C26.0558 48.5115 26.4617 48.8325 26.9243 49.0489L27.772 47.2374ZM27.3001 46.8644C27.1716 46.7034 27.0801 46.5132 27.034 46.308L25.0827 46.7467C25.1949 47.2455 25.4183 47.7127 25.737 48.1121L27.3001 46.8644ZM27.034 46.308C26.9879 46.1029 26.9887 45.8895 27.0363 45.6847L25.0882 45.2319C24.9725 45.7298 24.9706 46.2479 25.0827 46.7467L27.034 46.308ZM27.0375 45.6793L33.9802 15.0368L32.0297 14.5948L25.087 45.2373L27.0375 45.6793ZM33.9791 15.0415C34.0504 14.7339 34.2227 14.4645 34.4625 14.2764L33.2283 12.7026C32.6252 13.1757 32.2038 13.843 32.0307 14.5901L33.9791 15.0415ZM34.4625 14.2764C34.702 14.0886 34.9949 13.9924 35.2919 14.0005L35.3464 12.0012C34.5798 11.9803 33.8318 12.2293 33.2283 12.7026L34.4625 14.2764ZM35.3192 14.0008H58.4615V12.0008H35.3192V14.0008ZM58.4649 14.0008C58.6583 14.0002 58.85 14.0436 59.0261 14.1287L59.8962 12.3279C59.4476 12.1111 58.9561 11.9991 58.458 12.0008L58.4649 14.0008ZM59.0261 14.1287C59.2024 14.2138 59.3592 14.3389 59.4844 14.496L61.0488 13.25C60.7383 12.8601 60.3447 12.5446 59.8962 12.3279L59.0261 14.1287ZM59.4852 14.497C59.6121 14.656 59.703 14.8434 59.7497 15.0457L61.6984 14.5955C61.5848 14.1036 61.3628 13.6431 61.0479 13.2489L59.4852 14.497ZM59.7497 15.0457C59.7964 15.2479 59.7975 15.4586 59.7528 15.6614L61.706 16.0917C61.8146 15.5987 61.812 15.0873 61.6984 14.5955L59.7497 15.0457ZM59.7524 15.6632L55.7488 34.0016L57.7028 34.4282L61.7064 16.0898L59.7524 15.6632ZM56.7258 35.2149H67.7184V33.2149H56.7258V35.2149ZM67.7204 35.2149C67.9629 35.2144 68.2019 35.2832 68.4103 35.4153L69.4809 33.726C68.9529 33.3913 68.3414 33.2136 67.7164 33.2149L67.7204 35.2149ZM68.4103 35.4153C68.619 35.5475 68.7895 35.7385 68.9 35.9684L70.7023 35.1013C70.4312 34.5378 70.0088 34.0605 69.4809 33.726L68.4103 35.4153ZM68.8844 35.9342C68.9806 36.1552 69.018 36.3992 68.9919 36.641L70.9803 36.8558C71.0437 36.2694 70.9534 35.676 70.718 35.1355L68.8844 35.9342ZM68.9919 36.641C68.9658 36.8828 68.8774 37.1116 68.7374 37.3045L70.3559 38.4794C70.7022 38.0024 70.917 37.4421 70.9803 36.8557L68.9919 36.641ZM68.7469 37.2916L38.6619 77.3625L40.2613 78.5633L70.3463 38.4924L68.7469 37.2916ZM38.6279 77.4107C38.5107 77.5877 38.3554 77.7323 38.1758 77.8341L39.1626 79.5737C39.6183 79.3153 40.0059 78.9521 40.2954 78.515L38.6279 77.4107ZM38.1758 77.8341C37.9962 77.936 37.7968 77.9927 37.5937 78.0008L37.6731 79.9992C38.1965 79.9784 38.7069 79.8323 39.1626 79.5737L38.1758 77.8341ZM37.6524 78.0002C37.4679 77.9967 37.2852 77.9586 37.1133 77.8874L36.3484 79.7354C36.7504 79.9018 37.1796 79.9915 37.6144 79.9998L37.6524 78.0002ZM51.9172 39.1422L56.5457 17.9282L54.5917 17.5019L49.9632 38.7159L51.9172 39.1422ZM55.5687 16.7151H37.1705V18.7151H55.5687V16.7151ZM36.1953 17.494L30.3172 43.4222L32.2677 43.8644L38.1458 17.9362L36.1953 17.494ZM31.2924 44.6433H44.9695V42.6433H31.2924V44.6433ZM43.9808 43.4932L40.3012 67.7243L42.2785 68.0246L45.9582 43.7934L43.9808 43.4932ZM42.0887 68.476L63.8887 39.5307L62.2911 38.3275L40.4911 67.2728L42.0887 68.476ZM63.0899 37.9291H50.9402V39.9291H63.0899V37.9291ZM91 46C91 70.8528 70.8528 91 46 91V93C71.9574 93 93 71.9574 93 46H91ZM46 91C21.1472 91 1 70.8528 1 46H-1C-1 71.9574 20.0426 93 46 93V91ZM1 46C1 21.1472 21.1472 1 46 1V-1C20.0426 -1 -1 20.0426 -1 46H1ZM46 1C70.8528 1 91 21.1472 91 46H93C93 20.0426 71.9574 -1 46 -1V1Z" fill="#EC7979" mask="url(#path-1-inside-1_7402_341)"/>
 </symbol>
</svg>